<svg xmlns="http://www.w3.org/2000/svg" xmlns:xlink="http://www.w3.org/1999/xlink">
    <symbol viewBox="0 0 46 46" id="vk">
        <path
            d="M22.6983 0C10.1628 0 0 10.1623 0 22.6983C0 35.2343 10.1628 45.3966 22.6983 45.3966C35.2338 45.3966 45.3966 35.2343 45.3966 22.6983C45.3966 10.1623 35.2338 0 22.6983 0ZM34.2121 25.1532C35.27 26.1865 36.3893 27.159 37.339 28.2991C37.7598 28.8035 38.1564 29.325 38.4582 29.9116C38.8892 30.748 38.5 31.6652 37.7514 31.7149L33.1012 31.714C31.9002 31.8134 30.9445 31.329 30.1387 30.5079C29.4955 29.8535 28.8987 29.1546 28.2792 28.4779C28.0261 28.2002 27.7595 27.9388 27.4418 27.733C26.8079 27.3206 26.2571 27.4469 25.8939 28.1092C25.5238 28.7831 25.4393 29.5298 25.404 30.2799C25.3534 31.3764 25.0227 31.6629 23.9225 31.7145C21.5716 31.8245 19.341 31.4679 17.2679 30.2827C15.439 29.2373 14.0235 27.7618 12.79 26.0913C10.388 22.8348 8.54849 19.2607 6.89564 15.5839C6.52364 14.7559 6.79579 14.3128 7.70929 14.2956C9.227 14.2664 10.7447 14.2701 12.2624 14.2942C12.8801 14.304 13.2888 14.6574 13.5261 15.2403C14.3463 17.2581 15.3517 19.178 16.6117 20.9586C16.9474 21.4328 17.2902 21.9055 17.7783 22.2404C18.317 22.6101 18.7275 22.4879 18.9816 21.8865C19.1441 21.5043 19.2143 21.0956 19.2495 20.686C19.3703 19.283 19.3847 17.8805 19.1757 16.483C19.0457 15.6085 18.5539 15.0438 17.6821 14.8785C17.2382 14.7944 17.3032 14.63 17.5191 14.3764C17.8939 13.938 18.245 13.6668 18.9468 13.6668L24.2007 13.6659C25.0287 13.8284 25.2145 14.2 25.3269 15.0341L25.3315 20.8727C25.3218 21.1954 25.4936 22.1521 26.0732 22.3635C26.5376 22.5167 26.8441 22.1442 27.1219 21.8503C28.3818 20.5132 29.2795 18.9351 30.0834 17.3018C30.4382 16.5815 30.7443 15.8361 31.0415 15.0893C31.2626 14.5371 31.6062 14.2654 32.2295 14.2747L37.2888 14.2808C37.4379 14.2808 37.5893 14.2822 37.737 14.3077C38.5897 14.4535 38.8233 14.8204 38.5595 15.6522C38.1443 16.9591 37.3376 18.0476 36.549 19.139C35.7038 20.3075 34.8024 21.4351 33.9655 22.6087C33.1964 23.6815 33.2572 24.2216 34.2121 25.1532Z"
            fill="currentColor" fill-rule="evenodd" />
    </symbol>
    <symbol viewBox="0 0 46 46" id="instagram">
        <g clip-path="url(#clip0)">
            <path
                d="M18.7503 22.6981C18.7503 25.0976 20.6954 27.0427 23.0949 27.0427C25.4944 27.0427 27.4395 25.0976 27.4395 22.6981C27.4395 20.2986 25.4944 18.3535 23.0949 18.3535C20.6954 18.3535 18.7503 20.2986 18.7503 22.6981Z"
                fill="currentColor" fill-rule="evenodd" />
            <path
                d="M12.9345 15.0115C13.1433 14.4456 13.4765 13.9333 13.9095 13.5129C14.3299 13.0799 14.8418 12.7467 15.4081 12.5379C15.8674 12.3595 16.5573 12.1472 17.8281 12.0894C19.2027 12.0267 19.6149 12.0132 23.095 12.0132C26.5754 12.0132 26.9876 12.0263 28.3619 12.089C29.6326 12.1472 30.3229 12.3595 30.7818 12.5379C31.3481 12.7467 31.8604 13.0799 32.2805 13.5129C32.7134 13.9333 33.0466 14.4452 33.2558 15.0115C33.4342 15.4708 33.6465 16.1611 33.7043 17.4318C33.767 18.8061 33.7805 19.2183 33.7805 22.6987C33.7805 26.1788 33.767 26.591 33.7043 27.9657C33.6465 29.2364 33.4342 29.9263 33.2558 30.3856C33.0466 30.9519 32.7138 31.4638 32.2808 31.8842C31.8604 32.3172 31.3485 32.6504 30.7822 32.8592C30.3229 33.0379 29.6326 33.2502 28.3619 33.3081C26.9876 33.3708 26.5758 33.3839 23.0953 33.3839C19.6145 33.3839 19.2024 33.3708 17.8284 33.3081C16.5576 33.2502 15.8674 33.0379 15.4081 32.8592C14.2714 32.4207 13.373 31.5223 12.9345 30.3856C12.7561 29.9263 12.5438 29.2364 12.4856 27.9657C12.4229 26.591 12.4098 26.1788 12.4098 22.6987C12.4098 19.2183 12.4229 18.8061 12.4856 17.4318C12.5435 16.1611 12.7558 15.4708 12.9345 15.0115ZM23.095 29.3912C26.7916 29.3912 29.7882 26.395 29.7882 22.6984C29.7882 19.0018 26.7916 16.0055 23.095 16.0055C19.3987 16.0055 16.4021 19.0018 16.4021 22.6984C16.4021 26.395 19.3987 29.3912 23.095 29.3912ZM16.1375 17.305C17.0013 17.305 17.7016 16.6047 17.7016 15.7409C17.7016 14.8771 17.0013 14.1768 16.1375 14.1768C15.2737 14.1768 14.5734 14.8771 14.5734 15.7409C14.5738 16.6047 15.2737 17.305 16.1375 17.305Z"
                fill="currentColor" fill-rule="evenodd" />
            <path
                d="M23.0949 0C35.6289 0 45.7932 10.1643 45.7932 22.6983C45.7932 35.2323 35.6289 45.3966 23.0949 45.3966C10.5609 45.3966 0.396618 35.2323 0.396618 22.6983C0.396618 10.1643 10.5609 0 23.0949 0ZM10.1397 28.0719C10.2028 29.4594 10.4234 30.4066 10.7455 31.2358C11.4226 32.9866 12.8066 34.3706 14.5574 35.0477C15.3862 35.3698 16.3338 35.5901 17.721 35.6535C19.1109 35.7168 19.5549 35.7321 23.0946 35.7321C26.6346 35.7321 27.0783 35.7168 28.4685 35.6535C29.8556 35.5901 30.8032 35.3698 31.6321 35.0477C32.5021 34.7204 33.2897 34.2075 33.9408 33.5442C34.6037 32.8934 35.1167 32.1055 35.444 31.2358C35.7661 30.407 35.9867 29.4594 36.0497 28.0722C36.1138 26.682 36.1287 26.238 36.1287 22.6983C36.1287 19.1586 36.1138 18.7146 36.0501 17.3247C35.987 15.9372 35.7668 14.99 35.4447 14.1608C35.1174 13.2911 34.6041 12.5032 33.9408 11.8524C33.29 11.1891 32.5021 10.6762 31.6324 10.3489C30.8032 10.0268 29.856 9.80651 28.4685 9.74313C27.0786 9.67975 26.6346 9.66451 23.0949 9.66451C19.5552 9.66451 19.1112 9.67975 17.7213 9.74348C16.3338 9.80651 15.3866 10.0268 14.5574 10.3485C13.6877 10.6758 12.8998 11.1891 12.2487 11.8524C11.5858 12.5035 11.0725 13.2911 10.7455 14.1608C10.4231 14.99 10.2028 15.9372 10.1394 17.3247C10.076 18.7146 10.0611 19.1586 10.0611 22.6983C10.0611 26.238 10.076 26.682 10.1397 28.0719Z"
                fill="currentColor" fill-rule="evenodd" />
        </g>
        <defs>
            <clipPath id="clip0">
                <rect width="45.3966" height="45.3966" fill="white" transform="matrix(-1 0 0 1 45.7932 0)" />
            </clipPath>
        </defs>
    </symbol>
    <symbol viewBox="0 0 46 46" id="fb">
        <path
            d="M23.4915 0.0908203C11.0074 0.0908203 0.793213 10.3233 0.793213 22.9259C0.793213 34.3206 9.10078 43.7782 19.9506 45.4874V29.5348H14.1852V22.9259H19.9506V17.8894C19.9506 12.1692 23.3326 9.02429 28.5305 9.02429C31.0046 9.02429 33.5922 9.45729 33.5922 9.45729V15.0863H30.7322C27.9176 15.0863 27.0324 16.8411 27.0324 18.6414V22.9259H33.3425L32.3211 29.5348H27.0324V45.4874C32.3811 44.6393 37.2516 41.8993 40.7647 37.7619C44.2778 33.6246 46.2019 28.3626 46.1898 22.9259C46.1898 10.3233 35.9755 0.0908203 23.4915 0.0908203Z"
            fill="currentColor" fill-rule="evenodd" />
    </symbol>
    <symbol viewBox="0 0 40 40" id="whatsapp">
        <path
            d="M20 39.375C30.7005 39.375 39.375 30.7005 39.375 20C39.375 9.29948 30.7005 0.625 20 0.625C9.29948 0.625 0.625 9.29948 0.625 20C0.625 30.7005 9.29948 39.375 20 39.375Z"
            fill="#30BF39" />
        <path
            d="M25.8749 21.751C25.6249 21.626 24.3124 20.876 24.0624 20.8135C23.8124 20.6885 23.6249 20.6885 23.4374 20.9385C23.2499 21.1885 22.6874 21.8135 22.5624 21.9385C22.3749 22.126 22.2499 22.126 21.9999 22.001C21.7499 21.876 20.8749 21.5635 19.8749 20.5635C19.1249 19.8135 18.5624 18.9385 18.4374 18.626C18.3124 18.376 18.4374 18.1885 18.5624 18.0635C18.6874 17.9385 18.8124 17.751 18.9999 17.626C19.1874 17.501 19.1874 17.376 19.3124 17.1885C19.4374 17.001 19.3749 16.876 19.3124 16.6885C19.2499 16.501 18.7499 15.1885 18.5624 14.626C18.3749 14.0635 18.1249 14.1885 17.9999 14.126C17.8124 14.126 17.6874 14.0635 17.4999 14.0635C17.2499 14.0635 16.9374 14.1885 16.7499 14.376C16.4999 14.626 15.7499 15.251 15.7499 16.5635C15.7499 17.876 16.6249 19.251 16.7499 19.376C16.8749 19.5635 18.4999 22.4385 21.1874 23.626C23.8749 24.8135 23.8749 24.4385 24.3749 24.4385C24.8749 24.4385 25.9999 23.8135 26.2499 23.251C26.4999 22.626 26.4999 22.0635 26.4374 22.001C26.3124 22.001 26.1249 21.9385 25.8749 21.751ZM20.8749 28.1885C19.1249 28.1885 17.4999 27.6885 16.0624 26.751L12.6874 27.8135L13.8124 24.5635C12.7499 23.0635 12.1249 21.251 12.1249 19.376C12.1249 14.501 16.0624 10.5635 20.9374 10.5635C25.8124 10.5635 29.6874 14.501 29.6874 19.376C29.6874 24.251 25.7499 28.1885 20.8749 28.1885ZM20.8749 8.81348C15.0624 8.81348 10.3124 13.5635 10.3124 19.376C10.3124 21.3135 10.8124 23.1885 11.8124 24.8135L9.87489 30.501L15.7499 28.626C17.3124 29.501 19.0624 29.9385 20.8749 29.9385C26.6874 29.9385 31.4374 25.1885 31.4374 19.376C31.4374 13.5635 26.7499 8.81348 20.8749 8.81348Z"
            fill="white" />
    </symbol>
    <symbol viewBox="0 0 40 40" id="telegram">
        <path
            d="M20 40C31.0457 40 40 31.0457 40 20C40 8.95431 31.0457 0 20 0C8.95431 0 0 8.95431 0 20C0 31.0457 8.95431 40 20 40Z"
            fill="#229ED9" />
        <path fill-rule="evenodd" clip-rule="evenodd"
            d="M9.05311 19.7889L20.7167 14.7649C26.271 12.4547 27.425 12.0534 28.1773 12.0402C28.3428 12.0373 28.7127 12.0783 28.9523 12.2727C29.1547 12.4369 29.2103 12.6587 29.237 12.8143C29.2636 12.9699 29.2968 13.3246 29.2704 13.6017C28.9694 16.7641 27.667 24.4386 27.0045 27.9806C26.7241 29.4794 26.1725 29.9819 25.6377 30.0311C24.4762 30.138 23.5943 29.2635 22.4694 28.5261L18.006 25.528C16.0314 24.2268 17.3114 23.5116 18.4368 22.3428C18.7313 22.0368 23.8486 17.3823 23.9476 16.96C23.9596 16.9072 23.9715 16.7104 23.8546 16.6064C23.7376 16.5024 23.565 16.5384 23.4404 16.5663C23.2639 16.6064 20.4519 18.465 15.0044 22.1423C14.2062 22.6904 13.4832 22.9575 12.8354 22.9435C12.1213 22.9281 10.7477 22.5397 9.72651 22.2078C8.47399 21.8007 7.47851 21.5854 7.56523 20.8939C7.61035 20.5338 8.10631 20.1655 9.05307 19.789L9.05311 19.7889Z"
            fill="white" />
    </symbol>
    <symbol viewBox="0 0 16 16" id="modal-close">
        <path fill="currentColor" fill-rule="evenodd" clip-rule="evenodd"
            d="M0.666885 15.3045L15.3336 0.000275917L16.0002 0.695923L1.33355 16.0002L0.666885 15.3045Z" />
        <path fill="currentColor" fill-rule="evenodd" clip-rule="evenodd"
            d="M0.666725 -2.96187e-06L15.3334 15.3042L14.6667 15.9999L5.76143e-05 0.695644L0.666725 -2.96187e-06Z" />
    </symbol>
    <symbol viewBox="0 0 29 29" id="search-close">
        <g opacity="0.7">
            <rect width="37.2801" height="3.72801" transform="matrix(0.707093 0.707121 -0.707093 0.707121 2.63867 0)"
                fill="currentColor" fill-rule="evenodd" />
            <rect width="37.2801" height="3.72801"
                transform="matrix(0.707093 -0.707121 0.707093 0.707121 -0.000976562 26.3615)" fill="currentColor" fill-rule="evenodd" />
        </g>
    </symbol>
</svg>