<svg width="60" height="60" viewBox="0 0 60 60" fill="none" xmlns="http://www.w3.org/2000/svg">
<path d="M30 60C46.5685 60 60 46.5685 60 30C60 13.4315 46.5685 0 30 0C13.4315 0 0 13.4315 0 30C0 46.5685 13.4315 60 30 60Z" fill="url(#paint0_linear)"/>
<path fill-rule="evenodd" clip-rule="evenodd" d="M13.5796 29.6829L31.075 22.1469C39.4063 18.6816 41.1375 18.0796 42.2658 18.0598C42.514 18.0554 43.0689 18.1169 43.4283 18.4086C43.7319 18.6548 43.8153 18.9876 43.8553 19.221C43.8954 19.4544 43.945 19.9864 43.9055 20.402C43.454 25.1456 41.5005 36.6574 40.5066 41.9704C40.086 44.2186 39.2586 44.9724 38.4564 45.0462C36.7143 45.2065 35.3913 43.8948 33.7039 42.7887L27.0089 38.2915C24.0469 36.3397 25.967 35.2669 27.6551 33.5137C28.0968 33.0547 35.7728 26.0729 35.9213 25.4395C35.9393 25.3603 35.9571 25.0651 35.7817 24.9091C35.6063 24.7531 35.3473 24.8071 35.1605 24.849C34.8958 24.9091 30.6777 27.697 22.5064 33.213C21.3091 34.0351 20.2246 34.4358 19.253 34.4148C18.1819 34.3916 16.1214 33.8091 14.5897 33.3112C12.7109 32.7005 11.2177 32.3776 11.3477 31.3404C11.4154 30.8002 12.1594 30.2478 13.5795 29.683L13.5796 29.6829Z" fill="white"/>
<defs>
<linearGradient id="paint0_linear" x1="30" y1="0" x2="30" y2="59.555" gradientUnits="userSpaceOnUse">
<stop stop-color="#2AABEE"/>
<stop offset="1" stop-color="#229ED9"/>
</linearGradient>
</defs>
</svg>
