<svg width="60" height="60" viewBox="0 0 60 60" fill="none" xmlns="http://www.w3.org/2000/svg">
<path d="M30 59.0625C46.0508 59.0625 59.0625 46.0508 59.0625 30C59.0625 13.9492 46.0508 0.9375 30 0.9375C13.9492 0.9375 0.9375 13.9492 0.9375 30C0.9375 46.0508 13.9492 59.0625 30 59.0625Z" fill="#30BF39"/>
<path d="M38.8125 32.626C38.4375 32.4385 36.4688 31.3135 36.0938 31.2197C35.7188 31.0322 35.4375 31.0322 35.1563 31.4072C34.875 31.7822 34.0313 32.7197 33.8438 32.9072C33.5625 33.1885 33.375 33.1885 33 33.001C32.625 32.8135 31.3125 32.3447 29.8125 30.8447C28.6875 29.7197 27.8438 28.4072 27.6563 27.9385C27.4688 27.5635 27.6563 27.2822 27.8438 27.0947C28.0313 26.9072 28.2188 26.626 28.5 26.4385C28.7813 26.251 28.7813 26.0635 28.9688 25.7822C29.1563 25.501 29.0625 25.3135 28.9688 25.0322C28.875 24.751 28.125 22.7822 27.8438 21.9385C27.5625 21.0947 27.1875 21.2822 27 21.1885C26.7188 21.1885 26.5313 21.0947 26.25 21.0947C25.875 21.0947 25.4063 21.2822 25.125 21.5635C24.75 21.9385 23.625 22.876 23.625 24.8447C23.625 26.8135 24.9375 28.876 25.125 29.0635C25.3125 29.3447 27.75 33.6572 31.7813 35.4385C35.8125 37.2197 35.8125 36.6572 36.5625 36.6572C37.3125 36.6572 39 35.7197 39.375 34.876C39.75 33.9385 39.75 33.0947 39.6563 33.001C39.4688 33.001 39.1875 32.9072 38.8125 32.626ZM31.3125 42.2822C28.6875 42.2822 26.25 41.5322 24.0938 40.126L19.0312 41.7197L20.7188 36.8447C19.125 34.5947 18.1875 31.876 18.1875 29.0635C18.1875 21.751 24.0938 15.8447 31.4063 15.8447C38.7188 15.8447 44.5313 21.751 44.5313 29.0635C44.5313 36.376 38.625 42.2822 31.3125 42.2822ZM31.3125 13.2197C22.5938 13.2197 15.4688 20.3447 15.4688 29.0635C15.4688 31.9697 16.2187 34.7822 17.7188 37.2197L14.8125 45.751L23.625 42.9385C25.9688 44.251 28.5938 44.9072 31.3125 44.9072C40.0313 44.9072 47.1563 37.7822 47.1563 29.0635C47.1563 20.3447 40.125 13.2197 31.3125 13.2197Z" fill="white"/>
</svg>
