<svg width="176" height="42" viewBox="0 0 176 42" fill="none" xmlns="http://www.w3.org/2000/svg">
<mask id="path-1-outside-1" maskUnits="userSpaceOnUse" x="0.168457" y="29" width="176" height="13" fill="black">
<rect fill="white" x="0.168457" y="29" width="176" height="13"/>
<path d="M4.78965 33.7802L2.28975 30.1348H4.09561L5.79365 32.7425L7.50518 30.1348H9.29756L6.79092 33.7802L9.42559 37.5873H7.6332L5.79365 34.7977L3.96084 37.5873H2.16846L4.78965 33.7802Z"/>
<path d="M9.60078 30.1348H11.3258L12.8419 34.3597C13.071 34.9616 13.2237 35.5276 13.3001 36.0577H13.354C13.3944 35.8106 13.4686 35.5119 13.5764 35.1615C13.6842 34.8066 14.2547 33.1311 15.2879 30.1348H16.9994L13.8122 38.5778C13.2327 40.1276 12.2669 40.9025 10.9147 40.9025C10.5644 40.9025 10.2229 40.8644 9.89053 40.788V39.5347C10.1286 39.5886 10.4004 39.6155 10.7059 39.6155C11.4695 39.6155 12.0063 39.173 12.3163 38.2881L12.5926 37.5873L9.60078 30.1348Z"/>
<path d="M25.2808 40.222H23.8051V37.5873H18.6975V40.222H17.2353V36.3609H17.8417C18.3718 35.6018 18.7918 34.6854 19.1018 33.6117C19.4162 32.5336 19.6026 31.3746 19.661 30.1348H24.1892V36.3609H25.2808V40.222ZM22.6326 36.3609V31.3477H21.0289C20.9436 32.273 20.7639 33.185 20.4898 34.0834C20.2203 34.9818 19.8901 35.741 19.4993 36.3609H22.6326Z"/>
<path d="M33.2724 33.8476C33.2724 35.0649 32.9602 36.015 32.3357 36.6979C31.7113 37.3807 30.8421 37.7221 29.728 37.7221C29.0317 37.7221 28.4163 37.5648 27.8817 37.2504C27.3472 36.9359 26.9361 36.4845 26.6486 35.896C26.3611 35.3075 26.2174 34.6247 26.2174 33.8476C26.2174 32.6392 26.5273 31.6958 27.1473 31.0175C27.7672 30.3392 28.6409 30 29.7685 30C30.8466 30 31.7001 30.3481 32.329 31.0444C32.9579 31.7362 33.2724 32.6706 33.2724 33.8476ZM27.848 33.8476C27.848 35.5681 28.4837 36.4283 29.755 36.4283C31.0128 36.4283 31.6417 35.5681 31.6417 33.8476C31.6417 32.145 31.0083 31.2938 29.7415 31.2938C29.0767 31.2938 28.5938 31.5139 28.2928 31.9541C27.9963 32.3943 27.848 33.0255 27.848 33.8476Z"/>
<path d="M38.7708 33.7532V30.1348H40.2465V33.7532L43.117 30.1348H44.7881L41.8569 33.7397L45.0509 37.5873H43.3057L40.2465 33.8071V37.5873H38.7708V33.8071L35.7184 37.5873H33.9799L37.1671 33.7397L34.2427 30.1348H35.9138L38.7708 33.7532Z"/>
<path d="M49.4577 37.7221C48.2987 37.7221 47.3913 37.3852 46.7355 36.7113C46.0841 36.033 45.7584 35.1009 45.7584 33.9149C45.7584 32.6976 46.0616 31.7407 46.6681 31.0444C47.2745 30.3481 48.1078 30 49.168 30C50.1518 30 50.9289 30.2987 51.4994 30.8962C52.0699 31.4937 52.3552 32.3157 52.3552 33.3624V34.2182H47.3891C47.4115 34.9414 47.6069 35.4984 47.9753 35.8893C48.3437 36.2756 48.8625 36.4687 49.5318 36.4687C49.9721 36.4687 50.3809 36.4283 50.7582 36.3475C51.14 36.2621 51.5488 36.1229 51.9846 35.9297V37.2167C51.5982 37.4009 51.2074 37.5312 50.8121 37.6075C50.4168 37.6839 49.9653 37.7221 49.4577 37.7221ZM49.168 31.1994C48.6648 31.1994 48.2605 31.3589 47.9551 31.6778C47.6541 31.9968 47.4744 32.4617 47.416 33.0727H50.7986C50.7896 32.4572 50.6414 31.9923 50.3539 31.6778C50.0664 31.3589 49.6711 31.1994 49.168 31.1994Z"/>
<path d="M57.1596 37.7221C56.032 37.7221 55.174 37.3941 54.5855 36.7383C54.0016 36.0779 53.7096 35.1323 53.7096 33.9015C53.7096 32.6481 54.015 31.6846 54.626 31.0107C55.2414 30.3369 56.1286 30 57.2876 30C58.0737 30 58.7812 30.146 59.4102 30.438L58.9317 31.7115C58.2624 31.451 57.7099 31.3207 57.2741 31.3207C55.9849 31.3207 55.3402 32.1765 55.3402 33.888C55.3402 34.7235 55.4997 35.3524 55.8187 35.7747C56.1421 36.1925 56.6138 36.4014 57.2337 36.4014C57.939 36.4014 58.6061 36.2262 59.235 35.8758V37.2571C58.952 37.4233 58.6487 37.5424 58.3253 37.6143C58.0063 37.6861 57.6178 37.7221 57.1596 37.7221Z"/>
<path d="M66.5864 30.1348V31.3746H64.1606V37.5873H62.5704V31.3746H60.1446V30.1348H66.5864Z"/>
<path d="M74.4904 32.0417C74.4904 32.9222 73.9761 33.4545 72.9474 33.6387V33.6926C73.5224 33.76 73.9626 33.9419 74.2681 34.2384C74.5735 34.5349 74.7263 34.9189 74.7263 35.3906C74.7263 36.0959 74.4567 36.6395 73.9177 37.0213C73.3831 37.3986 72.6037 37.5873 71.5795 37.5873H68.0217V30.1348H71.566C73.5156 30.1348 74.4904 30.7704 74.4904 32.0417ZM73.1023 35.2963C73.1023 34.9369 72.9631 34.6831 72.6846 34.5349C72.4061 34.3821 71.9883 34.3058 71.4313 34.3058H69.6052V36.4148H71.4717C72.5588 36.4148 73.1023 36.042 73.1023 35.2963ZM72.9069 32.1765C72.9069 31.88 72.7901 31.6666 72.5565 31.5363C72.3274 31.4016 71.9838 31.3342 71.5256 31.3342H69.6052V33.1266H71.2897C71.8198 33.1266 72.2219 33.0592 72.4959 32.9244C72.7699 32.7852 72.9069 32.5358 72.9069 32.1765Z"/>
<path d="M79.6183 37.7221C78.4593 37.7221 77.5519 37.3852 76.896 36.7113C76.2446 36.033 75.9189 35.1009 75.9189 33.9149C75.9189 32.6976 76.2222 31.7407 76.8286 31.0444C77.4351 30.3481 78.2684 30 79.3285 30C80.3123 30 81.0895 30.2987 81.66 30.8962C82.2305 31.4937 82.5157 32.3157 82.5157 33.3624V34.2182H77.5496C77.5721 34.9414 77.7675 35.4984 78.1358 35.8893C78.5042 36.2756 79.023 36.4687 79.6924 36.4687C80.1326 36.4687 80.5414 36.4283 80.9188 36.3475C81.3006 36.2621 81.7094 36.1229 82.1451 35.9297V37.2167C81.7588 37.4009 81.368 37.5312 80.9727 37.6075C80.5773 37.6839 80.1259 37.7221 79.6183 37.7221ZM79.3285 31.1994C78.8254 31.1994 78.4211 31.3589 78.1156 31.6778C77.8147 31.9968 77.635 32.4617 77.5766 33.0727H80.9592C80.9502 32.4572 80.802 31.9923 80.5145 31.6778C80.227 31.3589 79.8316 31.1994 79.3285 31.1994Z"/>
<path d="M85.8983 30.1348V33.1266H89.409V30.1348H90.9925V37.5873H89.409V34.3731H85.8983V37.5873H84.3148V30.1348H85.8983Z"/>
<path d="M94.8468 30.1348V33.1266H98.3574V30.1348H99.9409V37.5873H98.3574V34.3731H94.8468V37.5873H93.2633V30.1348H94.8468Z"/>
<path d="M106.875 37.5873L106.558 36.5496H106.504C106.145 37.0033 105.783 37.3133 105.419 37.4795C105.055 37.6412 104.588 37.7221 104.018 37.7221C103.285 37.7221 102.713 37.5244 102.299 37.1291C101.891 36.7338 101.686 36.1745 101.686 35.4513C101.686 34.6831 101.971 34.1036 102.542 33.7128C103.112 33.322 103.982 33.1086 105.15 33.0727L106.437 33.0322V32.6347C106.437 32.1585 106.324 31.8036 106.1 31.57C105.88 31.3319 105.536 31.2129 105.069 31.2129C104.687 31.2129 104.321 31.269 103.97 31.3813C103.62 31.4937 103.283 31.6262 102.96 31.7789L102.448 30.6469C102.852 30.4357 103.294 30.2763 103.775 30.1685C104.256 30.0562 104.709 30 105.136 30C106.084 30 106.798 30.2066 107.279 30.6199C107.764 31.0332 108.007 31.6823 108.007 32.5673V37.5873H106.875ZM104.516 36.5092C105.091 36.5092 105.552 36.3497 105.898 36.0308C106.248 35.7073 106.423 35.2559 106.423 34.6764V34.0295L105.466 34.0699C104.721 34.0969 104.177 34.2227 103.836 34.4473C103.499 34.6674 103.33 35.0065 103.33 35.4647C103.33 35.7972 103.429 36.0555 103.627 36.2396C103.824 36.4193 104.121 36.5092 104.516 36.5092Z"/>
<path d="M110.978 37.5873H109.206L111.281 34.5349C110.778 34.3911 110.383 34.1351 110.096 33.7667C109.808 33.3938 109.664 32.9334 109.664 32.3854C109.664 31.6801 109.916 31.1298 110.419 30.7345C110.922 30.3347 111.609 30.1348 112.481 30.1348H115.877V37.5873H114.287V34.7168H112.784L110.978 37.5873ZM111.207 32.3988C111.207 32.7807 111.351 33.0682 111.639 33.2613C111.931 33.45 112.321 33.5443 112.811 33.5443H114.287V31.3342H112.562C112.13 31.3342 111.796 31.4263 111.558 31.6104C111.324 31.7946 111.207 32.0574 111.207 32.3988Z"/>
<path d="M126.544 30.1348V31.3746H123.309V37.5873H121.726V30.1348H126.544Z"/>
<path d="M132.642 37.5873L132.325 36.5496H132.271C131.912 37.0033 131.55 37.3133 131.186 37.4795C130.822 37.6412 130.355 37.7221 129.785 37.7221C129.053 37.7221 128.48 37.5244 128.067 37.1291C127.658 36.7338 127.453 36.1745 127.453 35.4513C127.453 34.6831 127.739 34.1036 128.309 33.7128C128.88 33.322 129.749 33.1086 130.917 33.0727L132.204 33.0322V32.6347C132.204 32.1585 132.092 31.8036 131.867 31.57C131.647 31.3319 131.303 31.2129 130.836 31.2129C130.454 31.2129 130.088 31.269 129.738 31.3813C129.387 31.4937 129.05 31.6262 128.727 31.7789L128.215 30.6469C128.619 30.4357 129.062 30.2763 129.542 30.1685C130.023 30.0562 130.477 30 130.903 30C131.851 30 132.565 30.2066 133.046 30.6199C133.531 31.0332 133.774 31.6823 133.774 32.5673V37.5873H132.642ZM130.283 36.5092C130.858 36.5092 131.319 36.3497 131.665 36.0308C132.015 35.7073 132.19 35.2559 132.19 34.6764V34.0295L131.234 34.0699C130.488 34.0969 129.944 34.2227 129.603 34.4473C129.266 34.6674 129.097 35.0065 129.097 35.4647C129.097 35.7972 129.196 36.0555 129.394 36.2396C129.592 36.4193 129.888 36.5092 130.283 36.5092Z"/>
<path d="M142.109 37.5873H140.512V31.3746H138.457C138.331 32.9738 138.16 34.2227 137.945 35.1211C137.734 36.0195 137.455 36.6754 137.109 37.0887C136.768 37.502 136.323 37.7086 135.775 37.7086C135.429 37.7086 135.139 37.6592 134.906 37.5604V36.3205C135.072 36.3834 135.238 36.4148 135.404 36.4148C135.863 36.4148 136.222 35.9005 136.483 34.8718C136.748 33.8386 136.954 32.2596 137.103 30.1348H142.109V37.5873Z"/>
<path d="M147.634 37.7221C146.475 37.7221 145.568 37.3852 144.912 36.7113C144.261 36.033 143.935 35.1009 143.935 33.9149C143.935 32.6976 144.238 31.7407 144.845 31.0444C145.451 30.3481 146.285 30 147.345 30C148.329 30 149.106 30.2987 149.676 30.8962C150.247 31.4937 150.532 32.3157 150.532 33.3624V34.2182H145.566C145.588 34.9414 145.784 35.4984 146.152 35.8893C146.52 36.2756 147.039 36.4687 147.709 36.4687C148.149 36.4687 148.558 36.4283 148.935 36.3475C149.317 36.2621 149.726 36.1229 150.161 35.9297V37.2167C149.775 37.4009 149.384 37.5312 148.989 37.6075C148.594 37.6839 148.142 37.7221 147.634 37.7221ZM147.345 31.1994C146.842 31.1994 146.437 31.3589 146.132 31.6778C145.831 31.9968 145.651 32.4617 145.593 33.0727H148.975C148.966 32.4572 148.818 31.9923 148.531 31.6778C148.243 31.3589 147.848 31.1994 147.345 31.1994Z"/>
<path d="M156.111 37.7221C155.168 37.7221 154.436 37.3829 153.915 36.7046H153.82C153.883 37.3335 153.915 37.7153 153.915 37.8501V40.9025H152.331V30.1348H153.611C153.647 30.274 153.721 30.6064 153.834 31.132H153.915C154.409 30.3773 155.15 30 156.138 30C157.068 30 157.791 30.3369 158.308 31.0107C158.829 31.6846 159.09 32.6302 159.09 33.8476C159.09 35.0649 158.825 36.015 158.294 36.6979C157.769 37.3807 157.041 37.7221 156.111 37.7221ZM155.727 31.2938C155.098 31.2938 154.638 31.4779 154.346 31.8463C154.058 32.2146 153.915 32.8031 153.915 33.6117V33.8476C153.915 34.755 154.058 35.4131 154.346 35.8219C154.633 36.2262 155.103 36.4283 155.754 36.4283C156.302 36.4283 156.724 36.2037 157.021 35.7545C157.317 35.3053 157.466 34.6651 157.466 33.8341C157.466 32.9985 157.317 32.3674 157.021 31.9406C156.729 31.5094 156.298 31.2938 155.727 31.2938Z"/>
<path d="M164.184 37.7221C163.025 37.7221 162.117 37.3852 161.461 36.7113C160.81 36.033 160.484 35.1009 160.484 33.9149C160.484 32.6976 160.788 31.7407 161.394 31.0444C162 30.3481 162.834 30 163.894 30C164.878 30 165.655 30.2987 166.225 30.8962C166.796 31.4937 167.081 32.3157 167.081 33.3624V34.2182H162.115C162.137 34.9414 162.333 35.4984 162.701 35.8893C163.07 36.2756 163.588 36.4687 164.258 36.4687C164.698 36.4687 165.107 36.4283 165.484 36.3475C165.866 36.2621 166.275 36.1229 166.711 35.9297V37.2167C166.324 37.4009 165.933 37.5312 165.538 37.6075C165.143 37.6839 164.691 37.7221 164.184 37.7221ZM163.894 31.1994C163.391 31.1994 162.987 31.3589 162.681 31.6778C162.38 31.9968 162.2 32.4617 162.142 33.0727H165.525C165.516 32.4572 165.367 31.9923 165.08 31.6778C164.792 31.3589 164.397 31.1994 163.894 31.1994Z"/>
<path d="M169.642 37.5873H167.87L169.945 34.5349C169.442 34.3911 169.046 34.1351 168.759 33.7667C168.471 33.3938 168.328 32.9334 168.328 32.3854C168.328 31.6801 168.579 31.1298 169.082 30.7345C169.586 30.3347 170.273 30.1348 171.144 30.1348H174.54V37.5873H172.95V34.7168H171.448L169.642 37.5873ZM169.871 32.3988C169.871 32.7807 170.015 33.0682 170.302 33.2613C170.594 33.45 170.985 33.5443 171.475 33.5443H172.95V31.3342H171.225C170.794 31.3342 170.459 31.4263 170.221 31.6104C169.988 31.7946 169.871 32.0574 169.871 32.3988Z"/>
</mask>
<path d="M4.78965 33.7802L2.28975 30.1348H4.09561L5.79365 32.7425L7.50518 30.1348H9.29756L6.79092 33.7802L9.42559 37.5873H7.6332L5.79365 34.7977L3.96084 37.5873H2.16846L4.78965 33.7802Z" fill="white"/>
<path d="M9.60078 30.1348H11.3258L12.8419 34.3597C13.071 34.9616 13.2237 35.5276 13.3001 36.0577H13.354C13.3944 35.8106 13.4686 35.5119 13.5764 35.1615C13.6842 34.8066 14.2547 33.1311 15.2879 30.1348H16.9994L13.8122 38.5778C13.2327 40.1276 12.2669 40.9025 10.9147 40.9025C10.5644 40.9025 10.2229 40.8644 9.89053 40.788V39.5347C10.1286 39.5886 10.4004 39.6155 10.7059 39.6155C11.4695 39.6155 12.0063 39.173 12.3163 38.2881L12.5926 37.5873L9.60078 30.1348Z" fill="white"/>
<path d="M25.2808 40.222H23.8051V37.5873H18.6975V40.222H17.2353V36.3609H17.8417C18.3718 35.6018 18.7918 34.6854 19.1018 33.6117C19.4162 32.5336 19.6026 31.3746 19.661 30.1348H24.1892V36.3609H25.2808V40.222ZM22.6326 36.3609V31.3477H21.0289C20.9436 32.273 20.7639 33.185 20.4898 34.0834C20.2203 34.9818 19.8901 35.741 19.4993 36.3609H22.6326Z" fill="white"/>
<path d="M33.2724 33.8476C33.2724 35.0649 32.9602 36.015 32.3357 36.6979C31.7113 37.3807 30.8421 37.7221 29.728 37.7221C29.0317 37.7221 28.4163 37.5648 27.8817 37.2504C27.3472 36.9359 26.9361 36.4845 26.6486 35.896C26.3611 35.3075 26.2174 34.6247 26.2174 33.8476C26.2174 32.6392 26.5273 31.6958 27.1473 31.0175C27.7672 30.3392 28.6409 30 29.7685 30C30.8466 30 31.7001 30.3481 32.329 31.0444C32.9579 31.7362 33.2724 32.6706 33.2724 33.8476ZM27.848 33.8476C27.848 35.5681 28.4837 36.4283 29.755 36.4283C31.0128 36.4283 31.6417 35.5681 31.6417 33.8476C31.6417 32.145 31.0083 31.2938 29.7415 31.2938C29.0767 31.2938 28.5938 31.5139 28.2928 31.9541C27.9963 32.3943 27.848 33.0255 27.848 33.8476Z" fill="white"/>
<path d="M38.7708 33.7532V30.1348H40.2465V33.7532L43.117 30.1348H44.7881L41.8569 33.7397L45.0509 37.5873H43.3057L40.2465 33.8071V37.5873H38.7708V33.8071L35.7184 37.5873H33.9799L37.1671 33.7397L34.2427 30.1348H35.9138L38.7708 33.7532Z" fill="white"/>
<path d="M49.4577 37.7221C48.2987 37.7221 47.3913 37.3852 46.7355 36.7113C46.0841 36.033 45.7584 35.1009 45.7584 33.9149C45.7584 32.6976 46.0616 31.7407 46.6681 31.0444C47.2745 30.3481 48.1078 30 49.168 30C50.1518 30 50.9289 30.2987 51.4994 30.8962C52.0699 31.4937 52.3552 32.3157 52.3552 33.3624V34.2182H47.3891C47.4115 34.9414 47.6069 35.4984 47.9753 35.8893C48.3437 36.2756 48.8625 36.4687 49.5318 36.4687C49.9721 36.4687 50.3809 36.4283 50.7582 36.3475C51.14 36.2621 51.5488 36.1229 51.9846 35.9297V37.2167C51.5982 37.4009 51.2074 37.5312 50.8121 37.6075C50.4168 37.6839 49.9653 37.7221 49.4577 37.7221ZM49.168 31.1994C48.6648 31.1994 48.2605 31.3589 47.9551 31.6778C47.6541 31.9968 47.4744 32.4617 47.416 33.0727H50.7986C50.7896 32.4572 50.6414 31.9923 50.3539 31.6778C50.0664 31.3589 49.6711 31.1994 49.168 31.1994Z" fill="white"/>
<path d="M57.1596 37.7221C56.032 37.7221 55.174 37.3941 54.5855 36.7383C54.0016 36.0779 53.7096 35.1323 53.7096 33.9015C53.7096 32.6481 54.015 31.6846 54.626 31.0107C55.2414 30.3369 56.1286 30 57.2876 30C58.0737 30 58.7812 30.146 59.4102 30.438L58.9317 31.7115C58.2624 31.451 57.7099 31.3207 57.2741 31.3207C55.9849 31.3207 55.3402 32.1765 55.3402 33.888C55.3402 34.7235 55.4997 35.3524 55.8187 35.7747C56.1421 36.1925 56.6138 36.4014 57.2337 36.4014C57.939 36.4014 58.6061 36.2262 59.235 35.8758V37.2571C58.952 37.4233 58.6487 37.5424 58.3253 37.6143C58.0063 37.6861 57.6178 37.7221 57.1596 37.7221Z" fill="white"/>
<path d="M66.5864 30.1348V31.3746H64.1606V37.5873H62.5704V31.3746H60.1446V30.1348H66.5864Z" fill="white"/>
<path d="M74.4904 32.0417C74.4904 32.9222 73.9761 33.4545 72.9474 33.6387V33.6926C73.5224 33.76 73.9626 33.9419 74.2681 34.2384C74.5735 34.5349 74.7263 34.9189 74.7263 35.3906C74.7263 36.0959 74.4567 36.6395 73.9177 37.0213C73.3831 37.3986 72.6037 37.5873 71.5795 37.5873H68.0217V30.1348H71.566C73.5156 30.1348 74.4904 30.7704 74.4904 32.0417ZM73.1023 35.2963C73.1023 34.9369 72.9631 34.6831 72.6846 34.5349C72.4061 34.3821 71.9883 34.3058 71.4313 34.3058H69.6052V36.4148H71.4717C72.5588 36.4148 73.1023 36.042 73.1023 35.2963ZM72.9069 32.1765C72.9069 31.88 72.7901 31.6666 72.5565 31.5363C72.3274 31.4016 71.9838 31.3342 71.5256 31.3342H69.6052V33.1266H71.2897C71.8198 33.1266 72.2219 33.0592 72.4959 32.9244C72.7699 32.7852 72.9069 32.5358 72.9069 32.1765Z" fill="white"/>
<path d="M79.6183 37.7221C78.4593 37.7221 77.5519 37.3852 76.896 36.7113C76.2446 36.033 75.9189 35.1009 75.9189 33.9149C75.9189 32.6976 76.2222 31.7407 76.8286 31.0444C77.4351 30.3481 78.2684 30 79.3285 30C80.3123 30 81.0895 30.2987 81.66 30.8962C82.2305 31.4937 82.5157 32.3157 82.5157 33.3624V34.2182H77.5496C77.5721 34.9414 77.7675 35.4984 78.1358 35.8893C78.5042 36.2756 79.023 36.4687 79.6924 36.4687C80.1326 36.4687 80.5414 36.4283 80.9188 36.3475C81.3006 36.2621 81.7094 36.1229 82.1451 35.9297V37.2167C81.7588 37.4009 81.368 37.5312 80.9727 37.6075C80.5773 37.6839 80.1259 37.7221 79.6183 37.7221ZM79.3285 31.1994C78.8254 31.1994 78.4211 31.3589 78.1156 31.6778C77.8147 31.9968 77.635 32.4617 77.5766 33.0727H80.9592C80.9502 32.4572 80.802 31.9923 80.5145 31.6778C80.227 31.3589 79.8316 31.1994 79.3285 31.1994Z" fill="white"/>
<path d="M85.8983 30.1348V33.1266H89.409V30.1348H90.9925V37.5873H89.409V34.3731H85.8983V37.5873H84.3148V30.1348H85.8983Z" fill="white"/>
<path d="M94.8468 30.1348V33.1266H98.3574V30.1348H99.9409V37.5873H98.3574V34.3731H94.8468V37.5873H93.2633V30.1348H94.8468Z" fill="white"/>
<path d="M106.875 37.5873L106.558 36.5496H106.504C106.145 37.0033 105.783 37.3133 105.419 37.4795C105.055 37.6412 104.588 37.7221 104.018 37.7221C103.285 37.7221 102.713 37.5244 102.299 37.1291C101.891 36.7338 101.686 36.1745 101.686 35.4513C101.686 34.6831 101.971 34.1036 102.542 33.7128C103.112 33.322 103.982 33.1086 105.15 33.0727L106.437 33.0322V32.6347C106.437 32.1585 106.324 31.8036 106.1 31.57C105.88 31.3319 105.536 31.2129 105.069 31.2129C104.687 31.2129 104.321 31.269 103.97 31.3813C103.62 31.4937 103.283 31.6262 102.96 31.7789L102.448 30.6469C102.852 30.4357 103.294 30.2763 103.775 30.1685C104.256 30.0562 104.709 30 105.136 30C106.084 30 106.798 30.2066 107.279 30.6199C107.764 31.0332 108.007 31.6823 108.007 32.5673V37.5873H106.875ZM104.516 36.5092C105.091 36.5092 105.552 36.3497 105.898 36.0308C106.248 35.7073 106.423 35.2559 106.423 34.6764V34.0295L105.466 34.0699C104.721 34.0969 104.177 34.2227 103.836 34.4473C103.499 34.6674 103.33 35.0065 103.33 35.4647C103.33 35.7972 103.429 36.0555 103.627 36.2396C103.824 36.4193 104.121 36.5092 104.516 36.5092Z" fill="white"/>
<path d="M110.978 37.5873H109.206L111.281 34.5349C110.778 34.3911 110.383 34.1351 110.096 33.7667C109.808 33.3938 109.664 32.9334 109.664 32.3854C109.664 31.6801 109.916 31.1298 110.419 30.7345C110.922 30.3347 111.609 30.1348 112.481 30.1348H115.877V37.5873H114.287V34.7168H112.784L110.978 37.5873ZM111.207 32.3988C111.207 32.7807 111.351 33.0682 111.639 33.2613C111.931 33.45 112.321 33.5443 112.811 33.5443H114.287V31.3342H112.562C112.13 31.3342 111.796 31.4263 111.558 31.6104C111.324 31.7946 111.207 32.0574 111.207 32.3988Z" fill="white"/>
<path d="M126.544 30.1348V31.3746H123.309V37.5873H121.726V30.1348H126.544Z" fill="white"/>
<path d="M132.642 37.5873L132.325 36.5496H132.271C131.912 37.0033 131.55 37.3133 131.186 37.4795C130.822 37.6412 130.355 37.7221 129.785 37.7221C129.053 37.7221 128.48 37.5244 128.067 37.1291C127.658 36.7338 127.453 36.1745 127.453 35.4513C127.453 34.6831 127.739 34.1036 128.309 33.7128C128.88 33.322 129.749 33.1086 130.917 33.0727L132.204 33.0322V32.6347C132.204 32.1585 132.092 31.8036 131.867 31.57C131.647 31.3319 131.303 31.2129 130.836 31.2129C130.454 31.2129 130.088 31.269 129.738 31.3813C129.387 31.4937 129.05 31.6262 128.727 31.7789L128.215 30.6469C128.619 30.4357 129.062 30.2763 129.542 30.1685C130.023 30.0562 130.477 30 130.903 30C131.851 30 132.565 30.2066 133.046 30.6199C133.531 31.0332 133.774 31.6823 133.774 32.5673V37.5873H132.642ZM130.283 36.5092C130.858 36.5092 131.319 36.3497 131.665 36.0308C132.015 35.7073 132.19 35.2559 132.19 34.6764V34.0295L131.234 34.0699C130.488 34.0969 129.944 34.2227 129.603 34.4473C129.266 34.6674 129.097 35.0065 129.097 35.4647C129.097 35.7972 129.196 36.0555 129.394 36.2396C129.592 36.4193 129.888 36.5092 130.283 36.5092Z" fill="white"/>
<path d="M142.109 37.5873H140.512V31.3746H138.457C138.331 32.9738 138.16 34.2227 137.945 35.1211C137.734 36.0195 137.455 36.6754 137.109 37.0887C136.768 37.502 136.323 37.7086 135.775 37.7086C135.429 37.7086 135.139 37.6592 134.906 37.5604V36.3205C135.072 36.3834 135.238 36.4148 135.404 36.4148C135.863 36.4148 136.222 35.9005 136.483 34.8718C136.748 33.8386 136.954 32.2596 137.103 30.1348H142.109V37.5873Z" fill="white"/>
<path d="M147.634 37.7221C146.475 37.7221 145.568 37.3852 144.912 36.7113C144.261 36.033 143.935 35.1009 143.935 33.9149C143.935 32.6976 144.238 31.7407 144.845 31.0444C145.451 30.3481 146.285 30 147.345 30C148.329 30 149.106 30.2987 149.676 30.8962C150.247 31.4937 150.532 32.3157 150.532 33.3624V34.2182H145.566C145.588 34.9414 145.784 35.4984 146.152 35.8893C146.52 36.2756 147.039 36.4687 147.709 36.4687C148.149 36.4687 148.558 36.4283 148.935 36.3475C149.317 36.2621 149.726 36.1229 150.161 35.9297V37.2167C149.775 37.4009 149.384 37.5312 148.989 37.6075C148.594 37.6839 148.142 37.7221 147.634 37.7221ZM147.345 31.1994C146.842 31.1994 146.437 31.3589 146.132 31.6778C145.831 31.9968 145.651 32.4617 145.593 33.0727H148.975C148.966 32.4572 148.818 31.9923 148.531 31.6778C148.243 31.3589 147.848 31.1994 147.345 31.1994Z" fill="white"/>
<path d="M156.111 37.7221C155.168 37.7221 154.436 37.3829 153.915 36.7046H153.82C153.883 37.3335 153.915 37.7153 153.915 37.8501V40.9025H152.331V30.1348H153.611C153.647 30.274 153.721 30.6064 153.834 31.132H153.915C154.409 30.3773 155.15 30 156.138 30C157.068 30 157.791 30.3369 158.308 31.0107C158.829 31.6846 159.09 32.6302 159.09 33.8476C159.09 35.0649 158.825 36.015 158.294 36.6979C157.769 37.3807 157.041 37.7221 156.111 37.7221ZM155.727 31.2938C155.098 31.2938 154.638 31.4779 154.346 31.8463C154.058 32.2146 153.915 32.8031 153.915 33.6117V33.8476C153.915 34.755 154.058 35.4131 154.346 35.8219C154.633 36.2262 155.103 36.4283 155.754 36.4283C156.302 36.4283 156.724 36.2037 157.021 35.7545C157.317 35.3053 157.466 34.6651 157.466 33.8341C157.466 32.9985 157.317 32.3674 157.021 31.9406C156.729 31.5094 156.298 31.2938 155.727 31.2938Z" fill="white"/>
<path d="M164.184 37.7221C163.025 37.7221 162.117 37.3852 161.461 36.7113C160.81 36.033 160.484 35.1009 160.484 33.9149C160.484 32.6976 160.788 31.7407 161.394 31.0444C162 30.3481 162.834 30 163.894 30C164.878 30 165.655 30.2987 166.225 30.8962C166.796 31.4937 167.081 32.3157 167.081 33.3624V34.2182H162.115C162.137 34.9414 162.333 35.4984 162.701 35.8893C163.07 36.2756 163.588 36.4687 164.258 36.4687C164.698 36.4687 165.107 36.4283 165.484 36.3475C165.866 36.2621 166.275 36.1229 166.711 35.9297V37.2167C166.324 37.4009 165.933 37.5312 165.538 37.6075C165.143 37.6839 164.691 37.7221 164.184 37.7221ZM163.894 31.1994C163.391 31.1994 162.987 31.3589 162.681 31.6778C162.38 31.9968 162.2 32.4617 162.142 33.0727H165.525C165.516 32.4572 165.367 31.9923 165.08 31.6778C164.792 31.3589 164.397 31.1994 163.894 31.1994Z" fill="white"/>
<path d="M169.642 37.5873H167.87L169.945 34.5349C169.442 34.3911 169.046 34.1351 168.759 33.7667C168.471 33.3938 168.328 32.9334 168.328 32.3854C168.328 31.6801 168.579 31.1298 169.082 30.7345C169.586 30.3347 170.273 30.1348 171.144 30.1348H174.54V37.5873H172.95V34.7168H171.448L169.642 37.5873ZM169.871 32.3988C169.871 32.7807 170.015 33.0682 170.302 33.2613C170.594 33.45 170.985 33.5443 171.475 33.5443H172.95V31.3342H171.225C170.794 31.3342 170.459 31.4263 170.221 31.6104C169.988 31.7946 169.871 32.0574 169.871 32.3988Z" fill="white"/>
<path d="M4.78965 33.7802L2.28975 30.1348H4.09561L5.79365 32.7425L7.50518 30.1348H9.29756L6.79092 33.7802L9.42559 37.5873H7.6332L5.79365 34.7977L3.96084 37.5873H2.16846L4.78965 33.7802Z" stroke="black" stroke-width="2" mask="url(#path-1-outside-1)"/>
<path d="M9.60078 30.1348H11.3258L12.8419 34.3597C13.071 34.9616 13.2237 35.5276 13.3001 36.0577H13.354C13.3944 35.8106 13.4686 35.5119 13.5764 35.1615C13.6842 34.8066 14.2547 33.1311 15.2879 30.1348H16.9994L13.8122 38.5778C13.2327 40.1276 12.2669 40.9025 10.9147 40.9025C10.5644 40.9025 10.2229 40.8644 9.89053 40.788V39.5347C10.1286 39.5886 10.4004 39.6155 10.7059 39.6155C11.4695 39.6155 12.0063 39.173 12.3163 38.2881L12.5926 37.5873L9.60078 30.1348Z" stroke="black" stroke-width="2" mask="url(#path-1-outside-1)"/>
<path d="M25.2808 40.222H23.8051V37.5873H18.6975V40.222H17.2353V36.3609H17.8417C18.3718 35.6018 18.7918 34.6854 19.1018 33.6117C19.4162 32.5336 19.6026 31.3746 19.661 30.1348H24.1892V36.3609H25.2808V40.222ZM22.6326 36.3609V31.3477H21.0289C20.9436 32.273 20.7639 33.185 20.4898 34.0834C20.2203 34.9818 19.8901 35.741 19.4993 36.3609H22.6326Z" stroke="black" stroke-width="2" mask="url(#path-1-outside-1)"/>
<path d="M33.2724 33.8476C33.2724 35.0649 32.9602 36.015 32.3357 36.6979C31.7113 37.3807 30.8421 37.7221 29.728 37.7221C29.0317 37.7221 28.4163 37.5648 27.8817 37.2504C27.3472 36.9359 26.9361 36.4845 26.6486 35.896C26.3611 35.3075 26.2174 34.6247 26.2174 33.8476C26.2174 32.6392 26.5273 31.6958 27.1473 31.0175C27.7672 30.3392 28.6409 30 29.7685 30C30.8466 30 31.7001 30.3481 32.329 31.0444C32.9579 31.7362 33.2724 32.6706 33.2724 33.8476ZM27.848 33.8476C27.848 35.5681 28.4837 36.4283 29.755 36.4283C31.0128 36.4283 31.6417 35.5681 31.6417 33.8476C31.6417 32.145 31.0083 31.2938 29.7415 31.2938C29.0767 31.2938 28.5938 31.5139 28.2928 31.9541C27.9963 32.3943 27.848 33.0255 27.848 33.8476Z" stroke="black" stroke-width="2" mask="url(#path-1-outside-1)"/>
<path d="M38.7708 33.7532V30.1348H40.2465V33.7532L43.117 30.1348H44.7881L41.8569 33.7397L45.0509 37.5873H43.3057L40.2465 33.8071V37.5873H38.7708V33.8071L35.7184 37.5873H33.9799L37.1671 33.7397L34.2427 30.1348H35.9138L38.7708 33.7532Z" stroke="black" stroke-width="2" mask="url(#path-1-outside-1)"/>
<path d="M49.4577 37.7221C48.2987 37.7221 47.3913 37.3852 46.7355 36.7113C46.0841 36.033 45.7584 35.1009 45.7584 33.9149C45.7584 32.6976 46.0616 31.7407 46.6681 31.0444C47.2745 30.3481 48.1078 30 49.168 30C50.1518 30 50.9289 30.2987 51.4994 30.8962C52.0699 31.4937 52.3552 32.3157 52.3552 33.3624V34.2182H47.3891C47.4115 34.9414 47.6069 35.4984 47.9753 35.8893C48.3437 36.2756 48.8625 36.4687 49.5318 36.4687C49.9721 36.4687 50.3809 36.4283 50.7582 36.3475C51.14 36.2621 51.5488 36.1229 51.9846 35.9297V37.2167C51.5982 37.4009 51.2074 37.5312 50.8121 37.6075C50.4168 37.6839 49.9653 37.7221 49.4577 37.7221ZM49.168 31.1994C48.6648 31.1994 48.2605 31.3589 47.9551 31.6778C47.6541 31.9968 47.4744 32.4617 47.416 33.0727H50.7986C50.7896 32.4572 50.6414 31.9923 50.3539 31.6778C50.0664 31.3589 49.6711 31.1994 49.168 31.1994Z" stroke="black" stroke-width="2" mask="url(#path-1-outside-1)"/>
<path d="M57.1596 37.7221C56.032 37.7221 55.174 37.3941 54.5855 36.7383C54.0016 36.0779 53.7096 35.1323 53.7096 33.9015C53.7096 32.6481 54.015 31.6846 54.626 31.0107C55.2414 30.3369 56.1286 30 57.2876 30C58.0737 30 58.7812 30.146 59.4102 30.438L58.9317 31.7115C58.2624 31.451 57.7099 31.3207 57.2741 31.3207C55.9849 31.3207 55.3402 32.1765 55.3402 33.888C55.3402 34.7235 55.4997 35.3524 55.8187 35.7747C56.1421 36.1925 56.6138 36.4014 57.2337 36.4014C57.939 36.4014 58.6061 36.2262 59.235 35.8758V37.2571C58.952 37.4233 58.6487 37.5424 58.3253 37.6143C58.0063 37.6861 57.6178 37.7221 57.1596 37.7221Z" stroke="black" stroke-width="2" mask="url(#path-1-outside-1)"/>
<path d="M66.5864 30.1348V31.3746H64.1606V37.5873H62.5704V31.3746H60.1446V30.1348H66.5864Z" stroke="black" stroke-width="2" mask="url(#path-1-outside-1)"/>
<path d="M74.4904 32.0417C74.4904 32.9222 73.9761 33.4545 72.9474 33.6387V33.6926C73.5224 33.76 73.9626 33.9419 74.2681 34.2384C74.5735 34.5349 74.7263 34.9189 74.7263 35.3906C74.7263 36.0959 74.4567 36.6395 73.9177 37.0213C73.3831 37.3986 72.6037 37.5873 71.5795 37.5873H68.0217V30.1348H71.566C73.5156 30.1348 74.4904 30.7704 74.4904 32.0417ZM73.1023 35.2963C73.1023 34.9369 72.9631 34.6831 72.6846 34.5349C72.4061 34.3821 71.9883 34.3058 71.4313 34.3058H69.6052V36.4148H71.4717C72.5588 36.4148 73.1023 36.042 73.1023 35.2963ZM72.9069 32.1765C72.9069 31.88 72.7901 31.6666 72.5565 31.5363C72.3274 31.4016 71.9838 31.3342 71.5256 31.3342H69.6052V33.1266H71.2897C71.8198 33.1266 72.2219 33.0592 72.4959 32.9244C72.7699 32.7852 72.9069 32.5358 72.9069 32.1765Z" stroke="black" stroke-width="2" mask="url(#path-1-outside-1)"/>
<path d="M79.6183 37.7221C78.4593 37.7221 77.5519 37.3852 76.896 36.7113C76.2446 36.033 75.9189 35.1009 75.9189 33.9149C75.9189 32.6976 76.2222 31.7407 76.8286 31.0444C77.4351 30.3481 78.2684 30 79.3285 30C80.3123 30 81.0895 30.2987 81.66 30.8962C82.2305 31.4937 82.5157 32.3157 82.5157 33.3624V34.2182H77.5496C77.5721 34.9414 77.7675 35.4984 78.1358 35.8893C78.5042 36.2756 79.023 36.4687 79.6924 36.4687C80.1326 36.4687 80.5414 36.4283 80.9188 36.3475C81.3006 36.2621 81.7094 36.1229 82.1451 35.9297V37.2167C81.7588 37.4009 81.368 37.5312 80.9727 37.6075C80.5773 37.6839 80.1259 37.7221 79.6183 37.7221ZM79.3285 31.1994C78.8254 31.1994 78.4211 31.3589 78.1156 31.6778C77.8147 31.9968 77.635 32.4617 77.5766 33.0727H80.9592C80.9502 32.4572 80.802 31.9923 80.5145 31.6778C80.227 31.3589 79.8316 31.1994 79.3285 31.1994Z" stroke="black" stroke-width="2" mask="url(#path-1-outside-1)"/>
<path d="M85.8983 30.1348V33.1266H89.409V30.1348H90.9925V37.5873H89.409V34.3731H85.8983V37.5873H84.3148V30.1348H85.8983Z" stroke="black" stroke-width="2" mask="url(#path-1-outside-1)"/>
<path d="M94.8468 30.1348V33.1266H98.3574V30.1348H99.9409V37.5873H98.3574V34.3731H94.8468V37.5873H93.2633V30.1348H94.8468Z" stroke="black" stroke-width="2" mask="url(#path-1-outside-1)"/>
<path d="M106.875 37.5873L106.558 36.5496H106.504C106.145 37.0033 105.783 37.3133 105.419 37.4795C105.055 37.6412 104.588 37.7221 104.018 37.7221C103.285 37.7221 102.713 37.5244 102.299 37.1291C101.891 36.7338 101.686 36.1745 101.686 35.4513C101.686 34.6831 101.971 34.1036 102.542 33.7128C103.112 33.322 103.982 33.1086 105.15 33.0727L106.437 33.0322V32.6347C106.437 32.1585 106.324 31.8036 106.1 31.57C105.88 31.3319 105.536 31.2129 105.069 31.2129C104.687 31.2129 104.321 31.269 103.97 31.3813C103.62 31.4937 103.283 31.6262 102.96 31.7789L102.448 30.6469C102.852 30.4357 103.294 30.2763 103.775 30.1685C104.256 30.0562 104.709 30 105.136 30C106.084 30 106.798 30.2066 107.279 30.6199C107.764 31.0332 108.007 31.6823 108.007 32.5673V37.5873H106.875ZM104.516 36.5092C105.091 36.5092 105.552 36.3497 105.898 36.0308C106.248 35.7073 106.423 35.2559 106.423 34.6764V34.0295L105.466 34.0699C104.721 34.0969 104.177 34.2227 103.836 34.4473C103.499 34.6674 103.33 35.0065 103.33 35.4647C103.33 35.7972 103.429 36.0555 103.627 36.2396C103.824 36.4193 104.121 36.5092 104.516 36.5092Z" stroke="black" stroke-width="2" mask="url(#path-1-outside-1)"/>
<path d="M110.978 37.5873H109.206L111.281 34.5349C110.778 34.3911 110.383 34.1351 110.096 33.7667C109.808 33.3938 109.664 32.9334 109.664 32.3854C109.664 31.6801 109.916 31.1298 110.419 30.7345C110.922 30.3347 111.609 30.1348 112.481 30.1348H115.877V37.5873H114.287V34.7168H112.784L110.978 37.5873ZM111.207 32.3988C111.207 32.7807 111.351 33.0682 111.639 33.2613C111.931 33.45 112.321 33.5443 112.811 33.5443H114.287V31.3342H112.562C112.13 31.3342 111.796 31.4263 111.558 31.6104C111.324 31.7946 111.207 32.0574 111.207 32.3988Z" stroke="black" stroke-width="2" mask="url(#path-1-outside-1)"/>
<path d="M126.544 30.1348V31.3746H123.309V37.5873H121.726V30.1348H126.544Z" stroke="black" stroke-width="2" mask="url(#path-1-outside-1)"/>
<path d="M132.642 37.5873L132.325 36.5496H132.271C131.912 37.0033 131.55 37.3133 131.186 37.4795C130.822 37.6412 130.355 37.7221 129.785 37.7221C129.053 37.7221 128.48 37.5244 128.067 37.1291C127.658 36.7338 127.453 36.1745 127.453 35.4513C127.453 34.6831 127.739 34.1036 128.309 33.7128C128.88 33.322 129.749 33.1086 130.917 33.0727L132.204 33.0322V32.6347C132.204 32.1585 132.092 31.8036 131.867 31.57C131.647 31.3319 131.303 31.2129 130.836 31.2129C130.454 31.2129 130.088 31.269 129.738 31.3813C129.387 31.4937 129.05 31.6262 128.727 31.7789L128.215 30.6469C128.619 30.4357 129.062 30.2763 129.542 30.1685C130.023 30.0562 130.477 30 130.903 30C131.851 30 132.565 30.2066 133.046 30.6199C133.531 31.0332 133.774 31.6823 133.774 32.5673V37.5873H132.642ZM130.283 36.5092C130.858 36.5092 131.319 36.3497 131.665 36.0308C132.015 35.7073 132.19 35.2559 132.19 34.6764V34.0295L131.234 34.0699C130.488 34.0969 129.944 34.2227 129.603 34.4473C129.266 34.6674 129.097 35.0065 129.097 35.4647C129.097 35.7972 129.196 36.0555 129.394 36.2396C129.592 36.4193 129.888 36.5092 130.283 36.5092Z" stroke="black" stroke-width="2" mask="url(#path-1-outside-1)"/>
<path d="M142.109 37.5873H140.512V31.3746H138.457C138.331 32.9738 138.16 34.2227 137.945 35.1211C137.734 36.0195 137.455 36.6754 137.109 37.0887C136.768 37.502 136.323 37.7086 135.775 37.7086C135.429 37.7086 135.139 37.6592 134.906 37.5604V36.3205C135.072 36.3834 135.238 36.4148 135.404 36.4148C135.863 36.4148 136.222 35.9005 136.483 34.8718C136.748 33.8386 136.954 32.2596 137.103 30.1348H142.109V37.5873Z" stroke="black" stroke-width="2" mask="url(#path-1-outside-1)"/>
<path d="M147.634 37.7221C146.475 37.7221 145.568 37.3852 144.912 36.7113C144.261 36.033 143.935 35.1009 143.935 33.9149C143.935 32.6976 144.238 31.7407 144.845 31.0444C145.451 30.3481 146.285 30 147.345 30C148.329 30 149.106 30.2987 149.676 30.8962C150.247 31.4937 150.532 32.3157 150.532 33.3624V34.2182H145.566C145.588 34.9414 145.784 35.4984 146.152 35.8893C146.52 36.2756 147.039 36.4687 147.709 36.4687C148.149 36.4687 148.558 36.4283 148.935 36.3475C149.317 36.2621 149.726 36.1229 150.161 35.9297V37.2167C149.775 37.4009 149.384 37.5312 148.989 37.6075C148.594 37.6839 148.142 37.7221 147.634 37.7221ZM147.345 31.1994C146.842 31.1994 146.437 31.3589 146.132 31.6778C145.831 31.9968 145.651 32.4617 145.593 33.0727H148.975C148.966 32.4572 148.818 31.9923 148.531 31.6778C148.243 31.3589 147.848 31.1994 147.345 31.1994Z" stroke="black" stroke-width="2" mask="url(#path-1-outside-1)"/>
<path d="M156.111 37.7221C155.168 37.7221 154.436 37.3829 153.915 36.7046H153.82C153.883 37.3335 153.915 37.7153 153.915 37.8501V40.9025H152.331V30.1348H153.611C153.647 30.274 153.721 30.6064 153.834 31.132H153.915C154.409 30.3773 155.15 30 156.138 30C157.068 30 157.791 30.3369 158.308 31.0107C158.829 31.6846 159.09 32.6302 159.09 33.8476C159.09 35.0649 158.825 36.015 158.294 36.6979C157.769 37.3807 157.041 37.7221 156.111 37.7221ZM155.727 31.2938C155.098 31.2938 154.638 31.4779 154.346 31.8463C154.058 32.2146 153.915 32.8031 153.915 33.6117V33.8476C153.915 34.755 154.058 35.4131 154.346 35.8219C154.633 36.2262 155.103 36.4283 155.754 36.4283C156.302 36.4283 156.724 36.2037 157.021 35.7545C157.317 35.3053 157.466 34.6651 157.466 33.8341C157.466 32.9985 157.317 32.3674 157.021 31.9406C156.729 31.5094 156.298 31.2938 155.727 31.2938Z" stroke="black" stroke-width="2" mask="url(#path-1-outside-1)"/>
<path d="M164.184 37.7221C163.025 37.7221 162.117 37.3852 161.461 36.7113C160.81 36.033 160.484 35.1009 160.484 33.9149C160.484 32.6976 160.788 31.7407 161.394 31.0444C162 30.3481 162.834 30 163.894 30C164.878 30 165.655 30.2987 166.225 30.8962C166.796 31.4937 167.081 32.3157 167.081 33.3624V34.2182H162.115C162.137 34.9414 162.333 35.4984 162.701 35.8893C163.07 36.2756 163.588 36.4687 164.258 36.4687C164.698 36.4687 165.107 36.4283 165.484 36.3475C165.866 36.2621 166.275 36.1229 166.711 35.9297V37.2167C166.324 37.4009 165.933 37.5312 165.538 37.6075C165.143 37.6839 164.691 37.7221 164.184 37.7221ZM163.894 31.1994C163.391 31.1994 162.987 31.3589 162.681 31.6778C162.38 31.9968 162.2 32.4617 162.142 33.0727H165.525C165.516 32.4572 165.367 31.9923 165.08 31.6778C164.792 31.3589 164.397 31.1994 163.894 31.1994Z" stroke="black" stroke-width="2" mask="url(#path-1-outside-1)"/>
<path d="M169.642 37.5873H167.87L169.945 34.5349C169.442 34.3911 169.046 34.1351 168.759 33.7667C168.471 33.3938 168.328 32.9334 168.328 32.3854C168.328 31.6801 168.579 31.1298 169.082 30.7345C169.586 30.3347 170.273 30.1348 171.144 30.1348H174.54V37.5873H172.95V34.7168H171.448L169.642 37.5873ZM169.871 32.3988C169.871 32.7807 170.015 33.0682 170.302 33.2613C170.594 33.45 170.985 33.5443 171.475 33.5443H172.95V31.3342H171.225C170.794 31.3342 170.459 31.4263 170.221 31.6104C169.988 31.7946 169.871 32.0574 169.871 32.3988Z" stroke="black" stroke-width="2" mask="url(#path-1-outside-1)"/>
<mask id="path-2-outside-2" maskUnits="userSpaceOnUse" x="1" y="0" width="175" height="24" fill="black">
<rect fill="white" x="1" width="175" height="24"/>
<path d="M2 22.5989H13.6611C18.2601 22.5989 20.6142 20.5161 20.6142 16.5512V16.4895C20.6142 13.5428 19.1175 11.7532 16.2334 11.244V10.9663C18.6498 10.5035 19.9126 8.92987 19.9126 6.36886V6.29173C19.9126 2.80505 17.7145 1 13.4117 1H2V22.5989ZM6.59897 9.84011V4.0547H12.0398C14.2379 4.0547 15.3292 5.01122 15.3292 6.89341V6.95512C15.3292 8.86816 14.2379 9.84011 12.0398 9.84011H6.59897ZM6.59897 19.5288V12.648H12.1801C14.5965 12.648 15.7969 13.7896 15.7969 16.0266V16.0884C15.7969 18.3717 14.5965 19.5288 12.1801 19.5288H6.59897Z"/>
<path d="M24.9462 1V22.5989H29.4828V1H24.9462Z"/>
<path d="M38.9751 23C42.6387 23 45.3046 21.3801 46.2867 18.6339L46.5985 18.7111C46.0061 21.7041 46.6297 23 50.2153 23C50.6674 23 51.1195 22.9537 51.4937 22.892L52.0237 20.223L51.2443 20.2076C50.3868 20.1921 50.1374 19.9916 50.1374 18.8962V11.4755C50.1374 7.80365 47.6742 6.04488 42.4205 6.04488C36.8393 6.04488 34.0176 8.2202 34.2514 11.9846L38.7257 12.3548C38.5386 9.87097 39.817 8.74474 42.3269 8.74474C44.5718 8.74474 45.6319 9.56241 45.6319 11.4292V12.3394L41.2045 13.1417C36.777 13.9593 33.8461 15.3478 33.8461 18.7419V18.7882C33.8461 21.4727 35.6857 23 38.9751 23ZM40.7835 20.007C39.2557 20.007 38.4295 19.467 38.4295 18.3562V18.3254C38.4295 16.7363 39.8793 16.0884 42.7478 15.533L45.6319 14.9776V15.7335C45.6319 18.2174 43.3714 20.007 40.7835 20.007Z"/>
<path d="M55.8414 22.5989H60.378V15.0701C60.378 11.4292 62.1084 9.17672 64.9769 9.17672C67.1127 9.17672 68.1728 10.2721 68.1728 12.3703V22.5989H72.7095V11.2903C72.7095 7.89621 70.6984 6.10659 66.9568 6.10659C63.5583 6.10659 61.2354 7.58766 59.8635 10.6732L59.5517 10.5344C60.1753 8.69846 60.3936 7.60309 60.3936 6.39972H55.8414V22.5989Z"/>
<path d="M86.2083 22.9846C91.5556 22.9846 94.5488 20.8555 95.0009 16.7363L90.4175 16.2272C90.2305 18.8191 88.7962 20.1304 86.2239 20.1304C83.3398 20.1304 81.8432 18.3408 81.8432 14.8079V14.0519C81.8432 10.5961 83.3554 8.85273 86.1771 8.85273C88.7806 8.85273 90.1369 10.2875 90.3396 13.1571L94.8606 12.648C94.502 8.28191 91.618 6.01403 86.1927 6.01403C80.2998 6.01403 77.1974 8.86816 77.1974 14.3296V14.5302C77.1974 20.0842 80.2686 22.9846 86.2083 22.9846Z"/>
<path d="M99.5201 22.5989H104.057V15.0701C104.057 11.4292 105.772 9.19215 108.656 9.19215C110.791 9.19215 111.852 10.2721 111.852 12.3703V22.5989H116.388V11.2903C116.388 7.89621 114.362 6.10659 110.636 6.10659C107.206 6.10659 104.899 7.58766 103.542 10.6578L103.215 10.5344C103.823 8.80645 104.041 7.52595 104.057 5.9986V1H99.5201V22.5989Z"/>
<path d="M125.803 23C129.466 23 132.132 21.3801 133.114 18.6339L133.426 18.7111C132.833 21.7041 133.457 23 137.043 23C137.495 23 137.947 22.9537 138.321 22.892L138.851 20.223L138.072 20.2076C137.214 20.1921 136.965 19.9916 136.965 18.8962V11.4755C136.965 7.80365 134.502 6.04488 129.248 6.04488C123.667 6.04488 120.845 8.2202 121.079 11.9846L125.553 12.3548C125.366 9.87097 126.644 8.74474 129.154 8.74474C131.399 8.74474 132.459 9.56241 132.459 11.4292V12.3394L128.032 13.1417C123.604 13.9593 120.673 15.3478 120.673 18.7419V18.7882C120.673 21.4727 122.513 23 125.803 23ZM127.611 20.007C126.083 20.007 125.257 19.467 125.257 18.3562V18.3254C125.257 16.7363 126.707 16.0884 129.575 15.533L132.459 14.9776V15.7335C132.459 18.2174 130.199 20.007 127.611 20.007Z"/>
<path d="M142.669 22.5989H147.205V15.8261C147.205 11.5989 148.53 10.0407 151.991 9.79383L154.221 9.62412L153.691 5.8906C150.027 6.1683 148.328 7.30996 146.644 10.6732L146.348 10.5344C147.081 8.37447 147.252 7.51052 147.221 6.39972H142.669V22.5989Z"/>
<path d="M164.243 22.892C167.61 22.892 169.809 21.3492 170.915 18.5568L171.243 18.6648C170.713 20.3619 170.432 21.7041 170.417 22.5989H175V1H170.463V5.39691C170.463 7.09397 170.697 8.46704 171.258 10.3338L170.947 10.4572C169.84 7.68022 167.626 6.07574 164.243 6.07574C159.566 6.07574 157.103 8.89902 157.103 14.2987V14.6844C157.103 20.0687 159.566 22.892 164.243 22.892ZM165.958 20.115C163.152 20.115 161.686 18.3408 161.686 14.8387V14.129C161.686 10.6115 163.152 8.82188 165.958 8.82188C168.889 8.82188 170.463 10.7041 170.463 14.2062V14.7616C170.463 18.2482 168.889 20.115 165.958 20.115Z"/>
</mask>
<path d="M2 22.5989H13.6611C18.2601 22.5989 20.6142 20.5161 20.6142 16.5512V16.4895C20.6142 13.5428 19.1175 11.7532 16.2334 11.244V10.9663C18.6498 10.5035 19.9126 8.92987 19.9126 6.36886V6.29173C19.9126 2.80505 17.7145 1 13.4117 1H2V22.5989ZM6.59897 9.84011V4.0547H12.0398C14.2379 4.0547 15.3292 5.01122 15.3292 6.89341V6.95512C15.3292 8.86816 14.2379 9.84011 12.0398 9.84011H6.59897ZM6.59897 19.5288V12.648H12.1801C14.5965 12.648 15.7969 13.7896 15.7969 16.0266V16.0884C15.7969 18.3717 14.5965 19.5288 12.1801 19.5288H6.59897Z" fill="white"/>
<path d="M24.9462 1V22.5989H29.4828V1H24.9462Z" fill="white"/>
<path d="M38.9751 23C42.6387 23 45.3046 21.3801 46.2867 18.6339L46.5985 18.7111C46.0061 21.7041 46.6297 23 50.2153 23C50.6674 23 51.1195 22.9537 51.4937 22.892L52.0237 20.223L51.2443 20.2076C50.3868 20.1921 50.1374 19.9916 50.1374 18.8962V11.4755C50.1374 7.80365 47.6742 6.04488 42.4205 6.04488C36.8393 6.04488 34.0176 8.2202 34.2514 11.9846L38.7257 12.3548C38.5386 9.87097 39.817 8.74474 42.3269 8.74474C44.5718 8.74474 45.6319 9.56241 45.6319 11.4292V12.3394L41.2045 13.1417C36.777 13.9593 33.8461 15.3478 33.8461 18.7419V18.7882C33.8461 21.4727 35.6857 23 38.9751 23ZM40.7835 20.007C39.2557 20.007 38.4295 19.467 38.4295 18.3562V18.3254C38.4295 16.7363 39.8793 16.0884 42.7478 15.533L45.6319 14.9776V15.7335C45.6319 18.2174 43.3714 20.007 40.7835 20.007Z" fill="white"/>
<path d="M55.8414 22.5989H60.378V15.0701C60.378 11.4292 62.1084 9.17672 64.9769 9.17672C67.1127 9.17672 68.1728 10.2721 68.1728 12.3703V22.5989H72.7095V11.2903C72.7095 7.89621 70.6984 6.10659 66.9568 6.10659C63.5583 6.10659 61.2354 7.58766 59.8635 10.6732L59.5517 10.5344C60.1753 8.69846 60.3936 7.60309 60.3936 6.39972H55.8414V22.5989Z" fill="white"/>
<path d="M86.2083 22.9846C91.5556 22.9846 94.5488 20.8555 95.0009 16.7363L90.4175 16.2272C90.2305 18.8191 88.7962 20.1304 86.2239 20.1304C83.3398 20.1304 81.8432 18.3408 81.8432 14.8079V14.0519C81.8432 10.5961 83.3554 8.85273 86.1771 8.85273C88.7806 8.85273 90.1369 10.2875 90.3396 13.1571L94.8606 12.648C94.502 8.28191 91.618 6.01403 86.1927 6.01403C80.2998 6.01403 77.1974 8.86816 77.1974 14.3296V14.5302C77.1974 20.0842 80.2686 22.9846 86.2083 22.9846Z" fill="white"/>
<path d="M99.5201 22.5989H104.057V15.0701C104.057 11.4292 105.772 9.19215 108.656 9.19215C110.791 9.19215 111.852 10.2721 111.852 12.3703V22.5989H116.388V11.2903C116.388 7.89621 114.362 6.10659 110.636 6.10659C107.206 6.10659 104.899 7.58766 103.542 10.6578L103.215 10.5344C103.823 8.80645 104.041 7.52595 104.057 5.9986V1H99.5201V22.5989Z" fill="white"/>
<path d="M125.803 23C129.466 23 132.132 21.3801 133.114 18.6339L133.426 18.7111C132.833 21.7041 133.457 23 137.043 23C137.495 23 137.947 22.9537 138.321 22.892L138.851 20.223L138.072 20.2076C137.214 20.1921 136.965 19.9916 136.965 18.8962V11.4755C136.965 7.80365 134.502 6.04488 129.248 6.04488C123.667 6.04488 120.845 8.2202 121.079 11.9846L125.553 12.3548C125.366 9.87097 126.644 8.74474 129.154 8.74474C131.399 8.74474 132.459 9.56241 132.459 11.4292V12.3394L128.032 13.1417C123.604 13.9593 120.673 15.3478 120.673 18.7419V18.7882C120.673 21.4727 122.513 23 125.803 23ZM127.611 20.007C126.083 20.007 125.257 19.467 125.257 18.3562V18.3254C125.257 16.7363 126.707 16.0884 129.575 15.533L132.459 14.9776V15.7335C132.459 18.2174 130.199 20.007 127.611 20.007Z" fill="white"/>
<path d="M142.669 22.5989H147.205V15.8261C147.205 11.5989 148.53 10.0407 151.991 9.79383L154.221 9.62412L153.691 5.8906C150.027 6.1683 148.328 7.30996 146.644 10.6732L146.348 10.5344C147.081 8.37447 147.252 7.51052 147.221 6.39972H142.669V22.5989Z" fill="white"/>
<path d="M164.243 22.892C167.61 22.892 169.809 21.3492 170.915 18.5568L171.243 18.6648C170.713 20.3619 170.432 21.7041 170.417 22.5989H175V1H170.463V5.39691C170.463 7.09397 170.697 8.46704 171.258 10.3338L170.947 10.4572C169.84 7.68022 167.626 6.07574 164.243 6.07574C159.566 6.07574 157.103 8.89902 157.103 14.2987V14.6844C157.103 20.0687 159.566 22.892 164.243 22.892ZM165.958 20.115C163.152 20.115 161.686 18.3408 161.686 14.8387V14.129C161.686 10.6115 163.152 8.82188 165.958 8.82188C168.889 8.82188 170.463 10.7041 170.463 14.2062V14.7616C170.463 18.2482 168.889 20.115 165.958 20.115Z" fill="white"/>
<path d="M2 22.5989H13.6611C18.2601 22.5989 20.6142 20.5161 20.6142 16.5512V16.4895C20.6142 13.5428 19.1175 11.7532 16.2334 11.244V10.9663C18.6498 10.5035 19.9126 8.92987 19.9126 6.36886V6.29173C19.9126 2.80505 17.7145 1 13.4117 1H2V22.5989ZM6.59897 9.84011V4.0547H12.0398C14.2379 4.0547 15.3292 5.01122 15.3292 6.89341V6.95512C15.3292 8.86816 14.2379 9.84011 12.0398 9.84011H6.59897ZM6.59897 19.5288V12.648H12.1801C14.5965 12.648 15.7969 13.7896 15.7969 16.0266V16.0884C15.7969 18.3717 14.5965 19.5288 12.1801 19.5288H6.59897Z" stroke="black" stroke-width="2" mask="url(#path-2-outside-2)"/>
<path d="M24.9462 1V22.5989H29.4828V1H24.9462Z" stroke="black" stroke-width="2" mask="url(#path-2-outside-2)"/>
<path d="M38.9751 23C42.6387 23 45.3046 21.3801 46.2867 18.6339L46.5985 18.7111C46.0061 21.7041 46.6297 23 50.2153 23C50.6674 23 51.1195 22.9537 51.4937 22.892L52.0237 20.223L51.2443 20.2076C50.3868 20.1921 50.1374 19.9916 50.1374 18.8962V11.4755C50.1374 7.80365 47.6742 6.04488 42.4205 6.04488C36.8393 6.04488 34.0176 8.2202 34.2514 11.9846L38.7257 12.3548C38.5386 9.87097 39.817 8.74474 42.3269 8.74474C44.5718 8.74474 45.6319 9.56241 45.6319 11.4292V12.3394L41.2045 13.1417C36.777 13.9593 33.8461 15.3478 33.8461 18.7419V18.7882C33.8461 21.4727 35.6857 23 38.9751 23ZM40.7835 20.007C39.2557 20.007 38.4295 19.467 38.4295 18.3562V18.3254C38.4295 16.7363 39.8793 16.0884 42.7478 15.533L45.6319 14.9776V15.7335C45.6319 18.2174 43.3714 20.007 40.7835 20.007Z" stroke="black" stroke-width="2" mask="url(#path-2-outside-2)"/>
<path d="M55.8414 22.5989H60.378V15.0701C60.378 11.4292 62.1084 9.17672 64.9769 9.17672C67.1127 9.17672 68.1728 10.2721 68.1728 12.3703V22.5989H72.7095V11.2903C72.7095 7.89621 70.6984 6.10659 66.9568 6.10659C63.5583 6.10659 61.2354 7.58766 59.8635 10.6732L59.5517 10.5344C60.1753 8.69846 60.3936 7.60309 60.3936 6.39972H55.8414V22.5989Z" stroke="black" stroke-width="2" mask="url(#path-2-outside-2)"/>
<path d="M86.2083 22.9846C91.5556 22.9846 94.5488 20.8555 95.0009 16.7363L90.4175 16.2272C90.2305 18.8191 88.7962 20.1304 86.2239 20.1304C83.3398 20.1304 81.8432 18.3408 81.8432 14.8079V14.0519C81.8432 10.5961 83.3554 8.85273 86.1771 8.85273C88.7806 8.85273 90.1369 10.2875 90.3396 13.1571L94.8606 12.648C94.502 8.28191 91.618 6.01403 86.1927 6.01403C80.2998 6.01403 77.1974 8.86816 77.1974 14.3296V14.5302C77.1974 20.0842 80.2686 22.9846 86.2083 22.9846Z" stroke="black" stroke-width="2" mask="url(#path-2-outside-2)"/>
<path d="M99.5201 22.5989H104.057V15.0701C104.057 11.4292 105.772 9.19215 108.656 9.19215C110.791 9.19215 111.852 10.2721 111.852 12.3703V22.5989H116.388V11.2903C116.388 7.89621 114.362 6.10659 110.636 6.10659C107.206 6.10659 104.899 7.58766 103.542 10.6578L103.215 10.5344C103.823 8.80645 104.041 7.52595 104.057 5.9986V1H99.5201V22.5989Z" stroke="black" stroke-width="2" mask="url(#path-2-outside-2)"/>
<path d="M125.803 23C129.466 23 132.132 21.3801 133.114 18.6339L133.426 18.7111C132.833 21.7041 133.457 23 137.043 23C137.495 23 137.947 22.9537 138.321 22.892L138.851 20.223L138.072 20.2076C137.214 20.1921 136.965 19.9916 136.965 18.8962V11.4755C136.965 7.80365 134.502 6.04488 129.248 6.04488C123.667 6.04488 120.845 8.2202 121.079 11.9846L125.553 12.3548C125.366 9.87097 126.644 8.74474 129.154 8.74474C131.399 8.74474 132.459 9.56241 132.459 11.4292V12.3394L128.032 13.1417C123.604 13.9593 120.673 15.3478 120.673 18.7419V18.7882C120.673 21.4727 122.513 23 125.803 23ZM127.611 20.007C126.083 20.007 125.257 19.467 125.257 18.3562V18.3254C125.257 16.7363 126.707 16.0884 129.575 15.533L132.459 14.9776V15.7335C132.459 18.2174 130.199 20.007 127.611 20.007Z" stroke="black" stroke-width="2" mask="url(#path-2-outside-2)"/>
<path d="M142.669 22.5989H147.205V15.8261C147.205 11.5989 148.53 10.0407 151.991 9.79383L154.221 9.62412L153.691 5.8906C150.027 6.1683 148.328 7.30996 146.644 10.6732L146.348 10.5344C147.081 8.37447 147.252 7.51052 147.221 6.39972H142.669V22.5989Z" stroke="black" stroke-width="2" mask="url(#path-2-outside-2)"/>
<path d="M164.243 22.892C167.61 22.892 169.809 21.3492 170.915 18.5568L171.243 18.6648C170.713 20.3619 170.432 21.7041 170.417 22.5989H175V1H170.463V5.39691C170.463 7.09397 170.697 8.46704 171.258 10.3338L170.947 10.4572C169.84 7.68022 167.626 6.07574 164.243 6.07574C159.566 6.07574 157.103 8.89902 157.103 14.2987V14.6844C157.103 20.0687 159.566 22.892 164.243 22.892ZM165.958 20.115C163.152 20.115 161.686 18.3408 161.686 14.8387V14.129C161.686 10.6115 163.152 8.82188 165.958 8.82188C168.889 8.82188 170.463 10.7041 170.463 14.2062V14.7616C170.463 18.2482 168.889 20.115 165.958 20.115Z" stroke="black" stroke-width="2" mask="url(#path-2-outside-2)"/>
</svg>
